# File created by Blade
# Date/Time:  Tue Apr 07 20:29:34 2015
# Frame Rate: 120.000 fps
#------------------------------------------------------
:FULLY-SPECIFIED
:DEGREES
3558
root -0.151623 32.782578 -3.308696 10.658707 -1.376535 -1.381642
Spine -13.682252 -2.714713 -1.205376
Head 10.956621 -1.126950 2.646032
LeftShoulder -19.888351 37.716443 23.820394
LeftArm 53.953241 -56.291407 -54.286332
LeftForeArm 6.498392 -0.000000 -2.148605
LeftHand 3.913850 -0.000000 0.316887
LeftHandThumb1 -26.253704 0.000000 33.147579
RightShoulder -8.202285 6.293985 -30.753501
RightArm 11.766261 11.030138 37.208543
RightForeArm -15.945102 -0.000000 3.436384
RightHand 1.981091 0.000000 3.357955
RightHandThumb1 -24.326973 -0.000000 -32.862282
LeftUpLeg -3.477660 -4.497494 1.062329
LeftLeg -3.859497 -0.000000 0.000000
LeftFoot -7.212255 10.199418 -15.818333
LeftToeBase -5.705755 -0.000000 0.000000
RightUpLeg -4.851632 -0.221033 2.779384
RightLeg -4.969058 -0.000000 0.000000
RightFoot -6.081791 -5.301640 6.411085
RightToeBase 1.587807 -0.000000 -0.000000
3559
root -0.155444 32.782857 -3.308723 10.664775 -1.381090 -1.383574
Spine -13.679043 -2.710615 -1.207668
Head 10.942157 -1.140892 2.633149
LeftShoulder -19.900454 37.731993 23.814773
LeftArm 54.008610 -56.314186 -54.321883
LeftForeArm 6.640927 -0.000000 -2.132331
LeftHand 3.919345 -0.000000 0.284173
LeftHandThumb1 -26.253704 0.000000 33.147579
RightShoulder -8.190502 6.288051 -30.759805
RightArm 11.754112 11.033123 37.213276
RightForeArm -15.926499 0.000000 3.422794
RightHand 1.986537 -0.000000 3.319905
RightHandThumb1 -24.326973 -0.000000 -32.862282
LeftUpLeg -3.479964 -4.516839 1.074718
LeftLeg -3.866679 -0.000000 0.000000
LeftFoot -7.221640 10.207430 -15.869907
LeftToeBase -5.659056 -0.000000 0.000000
RightUpLeg -4.857919 -0.215361 2.785210
RightLeg -4.967494 -0.000000 0.000000
RightFoot -6.072248 -5.297952 6.389654
RightToeBase 1.566830 -0.000000 -0.000000
3560
root -0.159971 32.782853 -3.308430 10.667140 -1.378210 -1.382904
Spine -13.674292 -2.702204 -1.216873
Head 10.940300 -1.161366 2.630302
LeftShoulder -19.897752 37.761198 23.817579
LeftArm 54.030296 -56.310538 -54.304069
LeftForeArm 6.761416 -0.000000 -2.115541
LeftHand 3.790213 -0.000000 0.192357
LeftHandThumb1 -26.253704 0.000000 33.147579
RightShoulder -8.193875 6.276622 -30.764732
RightArm 11.753089 11.034550 37.218076
RightForeArm -15.886816 -0.000000 3.398799
RightHand 2.003774 -0.000000 3.283454
RightHandThumb1 -24.326973 -0.000000 -32.862282
LeftUpLeg -3.479940 -4.519318 1.084654
LeftLeg -3.871063 -0.000000 0.000000
LeftFoot -7.210903 10.203399 -15.851594
LeftToeBase -5.682817 -0.000000 0.000000
RightUpLeg -4.857431 -0.226972 2.793669
RightLeg -4.973903 -0.000000 0.000000
RightFoot -6.057635 -5.299160 6.367125
RightToeBase 1.524216 -0.000000 -0.000000
3561
root -0.163789 32.783180 -3.308184 10.670731 -1.382395 -1.385514
Spine -13.670621 -2.687902 -1.221541
Head 10.936099 -1.159494 2.615798
LeftShoulder -19.884971 37.766296 23.833463
LeftArm 53.996707 -56.297918 -54.244962
LeftForeArm 6.821491 -0.000000 -2.099912
LeftHand 3.817426 -0.000000 0.212165
LeftHandThumb1 -26.253704 0.000000 33.147579
RightShoulder -8.196321 6.278625 -30.776892
RightArm 11.742583 11.066614 37.235806
RightForeArm -15.902908 -0.000000 3.390772
RightHand 2.002332 -0.000000 3.276474
RightHandThumb1 -24.326973 -0.000000 -32.862282
LeftUpLeg -3.483361 -4.521716 1.095938
LeftLeg -3.868151 -0.000000 0.000000
LeftFoot -7.205327 10.193884 -15.865665
LeftToeBase -5.670886 -0.000000 0.000000
RightUpLeg -4.863319 -0.219804 2.801686
RightLeg -4.967931 -0.000000 0.000000
RightFoot -6.050123 -5.305403 6.352817
RightToeBase 1.513600 -0.000000 -0.000000
3562
root -0.168087 32.783447 -3.307670 10.674686 -1.378211 -1.385567
Spine -13.665622 -2.701325 -1.224504
Head 10.926584 -1.142117 2.617021
LeftShoulder -19.897184 37.765056 23.840003
LeftArm 53.942401 -56.263713 -54.162756
LeftForeArm 6.885920 -0.000000 -2.094682
LeftHand 3.822131 -0.000000 0.318521
LeftHandThumb1 -26.253704 0.000000 33.147579
RightShoulder -8.193607 6.285713 -30.780034
RightArm 11.746024 11.075008 37.247309
RightForeArm -15.914508 -0.000000 3.385213
RightHand 2.001841 0.000000 3.237861
RightHandThumb1 -24.326973 -0.000000 -32.862282
LeftUpLeg -3.489333 -4.521646 1.104389
LeftLeg -3.865015 -0.000000 0.000000
LeftFoot -7.209435 10.201453 -15.865875
LeftToeBase -5.656038 -0.000000 0.000000
RightUpLeg -4.869243 -0.235913 2.811391
RightLeg -4.961616 -0.000000 0.000000
RightFoot -6.064140 -5.273568 6.375632
RightToeBase 1.561541 -0.000000 -0.000000
3563
root -0.172168 32.783869 -3.307061 10.681451 -1.377966 -1.383275
Spine -13.665326 -2.693699 -1.235405
Head 10.922054 -1.151994 2.609974
LeftShoulder -19.895007 37.782232 23.844748
LeftArm 53.926166 -56.254228 -54.112927
LeftForeArm 6.924750 0.000000 -2.077244
LeftHand 3.799279 -0.000000 0.356045
LeftHandThumb1 -26.253704 0.000000 33.147579
RightShoulder -8.206236 6.314958 -30.790279
RightArm 11.739716 11.083230 37.260432
RightForeArm -15.924979 0.000000 3.369132
RightHand 2.026322 0.000000 3.157751
RightHandThumb1 -24.326973 -0.000000 -32.862282
LeftUpLeg -3.496906 -4.523320 1.111266
LeftLeg -3.862264 -0.000000 0.000000
LeftFoot -7.202444 10.191620 -15.869105
LeftToeBase -5.688187 -0.000000 0.000000
RightUpLeg -4.873002 -0.245736 2.817715
RightLeg -4.966521 -0.000000 0.000000
RightFoot -6.053574 -5.261887 6.396993
RightToeBase 1.533701 -0.000000 -0.000000
